<svg width="81" height="76" viewBox="0 0 81 76" fill="none" xmlns="http://www.w3.org/2000/svg">
<path d="M46.7949 19.1923L46.7949 35.8077C46.7944 36.2972 46.5997 36.7665 46.2536 37.1126C45.9075 37.4587 45.4382 37.6534 44.9487 37.6539L41.2564 37.6539C40.7669 37.6534 40.2976 37.4587 39.9515 37.1126C39.6054 36.7665 39.4108 36.2972 39.4103 35.8077L39.4103 19.1923C39.4108 18.7028 39.6054 18.2335 39.9515 17.8874C40.2976 17.5413 40.7669 17.3467 41.2564 17.3462L44.9487 17.3462C45.4382 17.3467 45.9075 17.5413 46.2536 17.8874C46.5997 18.2335 46.7944 18.7028 46.7949 19.1923ZM41.2564 35.8077L44.9487 35.8077L44.9487 19.1923L41.2564 19.1923L41.2564 35.8077ZM41.2564 19.1923L41.2564 35.8077C41.2559 36.2972 41.0613 36.7665 40.7152 37.1126C40.369 37.4587 39.8997 37.6533 39.4103 37.6538L35.718 37.6538C35.2285 37.6533 34.7592 37.4587 34.4131 37.1126C34.067 36.7665 33.8723 36.2972 33.8718 35.8077L33.8718 19.1923C33.8723 18.7028 34.067 18.2335 34.4131 17.8874C34.7592 17.5413 35.2285 17.3466 35.718 17.3461L39.4103 17.3461C39.8997 17.3466 40.369 17.5413 40.7152 17.8874C41.0613 18.2335 41.2559 18.7028 41.2564 19.1923ZM35.718 35.8077L39.4103 35.8077L39.4103 19.1923L35.718 19.1923L35.718 35.8077ZM35.718 19.1923L35.718 35.8077C35.7175 36.2972 35.5228 36.7665 35.1767 37.1126C34.8306 37.4587 34.3613 37.6533 33.8718 37.6538L30.1795 37.6538C29.69 37.6533 29.2207 37.4587 28.8746 37.1126C28.5285 36.7665 28.3338 36.2972 28.3333 35.8077L28.3333 19.1923C28.3338 18.7028 28.5285 18.2335 28.8746 17.8874C29.2207 17.5413 29.69 17.3466 30.1795 17.3461L33.8718 17.3461C34.3613 17.3466 34.8306 17.5413 35.1767 17.8874C35.5228 18.2335 35.7175 18.7028 35.718 19.1923ZM30.1795 35.8077L33.8718 35.8077L33.8718 19.1923L30.1795 19.1923L30.1795 35.8077Z" fill="#CDCDCD"/>
<path d="M52.3333 19.1925L52.3333 35.8079C52.3329 36.2974 52.1382 36.7667 51.7921 37.1128C51.446 37.4589 50.9767 37.6536 50.4872 37.6541L46.7949 37.6541C46.3054 37.6536 45.8361 37.4589 45.49 37.1128C45.1439 36.7667 44.9492 36.2972 44.9487 35.8077L44.9487 19.1923C44.9492 18.7028 45.1439 18.2337 45.49 17.8876C45.8361 17.5415 46.3054 17.3469 46.7949 17.3464L50.4872 17.3464C50.9767 17.3469 51.446 17.5415 51.7921 17.8876C52.1382 18.2337 52.3329 18.703 52.3333 19.1925ZM46.7949 35.8077L50.4872 35.8079L50.4872 19.1925L46.7949 19.1923L46.7949 35.8077Z" fill="#CDCDCD"/>
<path d="M21.7005 47.5059H24.5306C25.7793 47.5059 26.7181 47.6927 27.347 48.0664C27.9759 48.4401 28.2904 49.0758 28.2904 49.9736C28.2904 50.361 28.2152 50.7096 28.0648 51.0195C27.919 51.3249 27.7048 51.5778 27.4222 51.7783C27.1397 51.9788 26.791 52.1178 26.3763 52.1953V52.2637C26.8138 52.332 27.2012 52.4574 27.5384 52.6396C27.8757 52.8219 28.14 53.0771 28.3314 53.4053C28.5228 53.7334 28.6185 54.1504 28.6185 54.6562C28.6185 55.2715 28.4749 55.791 28.1878 56.2148C27.9053 56.6387 27.5042 56.96 26.9847 57.1787C26.4652 57.3929 25.8499 57.5 25.139 57.5H21.7005V47.5059ZM22.8626 51.792H24.7767C25.6471 51.792 26.2487 51.6484 26.5814 51.3613C26.9186 51.0742 27.0872 50.6549 27.0872 50.1035C27.0872 49.5339 26.8867 49.1237 26.4857 48.873C26.0892 48.6224 25.4557 48.4971 24.5853 48.4971H22.8626V51.792ZM22.8626 52.7695V56.5088H24.9408C25.8294 56.5088 26.4583 56.3356 26.8275 55.9893C27.1966 55.6383 27.3812 55.1667 27.3812 54.5742C27.3812 54.196 27.2969 53.8724 27.1283 53.6035C26.9642 53.3346 26.6953 53.1296 26.3216 52.9883C25.9525 52.8424 25.458 52.7695 24.8382 52.7695H22.8626ZM37.0404 53.7402C37.0404 54.3555 36.9606 54.9046 36.8011 55.3877C36.6416 55.8708 36.4115 56.2786 36.1107 56.6113C35.8099 56.944 35.4453 57.1992 35.0169 57.377C34.5931 57.5501 34.1123 57.6367 33.5746 57.6367C33.0733 57.6367 32.613 57.5501 32.1937 57.377C31.779 57.1992 31.419 56.944 31.1136 56.6113C30.8128 56.2786 30.5781 55.8708 30.4095 55.3877C30.2455 54.9046 30.1634 54.3555 30.1634 53.7402C30.1634 52.9199 30.3024 52.2227 30.5804 51.6484C30.8584 51.0697 31.2549 50.6299 31.7699 50.3291C32.2894 50.0238 32.9069 49.8711 33.6224 49.8711C34.306 49.8711 34.903 50.0238 35.4134 50.3291C35.9284 50.6344 36.3272 51.0765 36.6097 51.6553C36.8968 52.2295 37.0404 52.9245 37.0404 53.7402ZM31.3392 53.7402C31.3392 54.3418 31.419 54.8636 31.5785 55.3057C31.738 55.7477 31.9841 56.0895 32.3167 56.3311C32.6494 56.5726 33.0778 56.6934 33.6019 56.6934C34.1214 56.6934 34.5475 56.5726 34.8802 56.3311C35.2175 56.0895 35.4658 55.7477 35.6253 55.3057C35.7848 54.8636 35.8646 54.3418 35.8646 53.7402C35.8646 53.1432 35.7848 52.6283 35.6253 52.1953C35.4658 51.7578 35.2197 51.4206 34.8871 51.1836C34.5544 50.9466 34.1237 50.8281 33.5951 50.8281C32.8158 50.8281 32.2438 51.0856 31.8792 51.6006C31.5192 52.1156 31.3392 52.8288 31.3392 53.7402ZM41.805 49.8848C42.6983 49.8848 43.3613 50.0853 43.7943 50.4863C44.2272 50.8874 44.4437 51.5277 44.4437 52.4072V57.5H43.6165L43.3978 56.3926H43.3431C43.1335 56.666 42.9147 56.8962 42.6869 57.083C42.459 57.2653 42.1947 57.4043 41.8939 57.5C41.5977 57.5911 41.2331 57.6367 40.8001 57.6367C40.3444 57.6367 39.9388 57.557 39.5833 57.3975C39.2324 57.238 38.9544 56.9964 38.7494 56.6729C38.5488 56.3493 38.4486 55.9391 38.4486 55.4424C38.4486 54.695 38.7448 54.1208 39.3372 53.7197C39.9297 53.3187 40.832 53.0999 42.0443 53.0635L43.3363 53.0088V52.5508C43.3363 51.9036 43.1973 51.4502 42.9193 51.1904C42.6413 50.9307 42.2494 50.8008 41.7435 50.8008C41.3516 50.8008 40.9779 50.8577 40.6224 50.9717C40.2669 51.0856 39.9297 51.2201 39.6107 51.375L39.2621 50.5137C39.5993 50.3405 39.9867 50.1924 40.4242 50.0693C40.8617 49.9463 41.322 49.8848 41.805 49.8848ZM43.3226 53.8086L42.181 53.8564C41.2468 53.8929 40.5882 54.0456 40.2054 54.3145C39.8226 54.5833 39.6312 54.9639 39.6312 55.4561C39.6312 55.8844 39.7611 56.2012 40.0208 56.4062C40.2806 56.6113 40.6247 56.7139 41.0531 56.7139C41.7184 56.7139 42.263 56.5293 42.6869 56.1602C43.1107 55.791 43.3226 55.2373 43.3226 54.499V53.8086ZM50.1859 49.8711C50.3363 49.8711 50.4935 49.8802 50.6576 49.8984C50.8216 49.9121 50.9675 49.9326 51.0951 49.96L50.9515 51.0127C50.8285 50.9808 50.6917 50.9557 50.5414 50.9375C50.391 50.9193 50.2497 50.9102 50.1175 50.9102C49.8167 50.9102 49.5319 50.9717 49.263 51.0947C48.9987 51.2132 48.7663 51.3864 48.5658 51.6143C48.3652 51.8376 48.208 52.1087 48.0941 52.4277C47.9802 52.7422 47.9232 53.0931 47.9232 53.4805V57.5H46.7816V50.0078H47.7249L47.848 51.3887H47.8958C48.0508 51.1107 48.2376 50.8577 48.4564 50.6299C48.6751 50.3975 48.9281 50.2129 49.2152 50.0762C49.5068 49.9395 49.8304 49.8711 50.1859 49.8711ZM55.1761 57.6367C54.2282 57.6367 53.4762 57.3132 52.9203 56.666C52.3688 56.0189 52.0931 55.0573 52.0931 53.7812C52.0931 52.4915 52.3757 51.5186 52.9408 50.8623C53.5059 50.2015 54.2578 49.8711 55.1966 49.8711C55.5931 49.8711 55.9395 49.9235 56.2357 50.0283C56.5319 50.1331 56.7871 50.2744 57.0013 50.4521C57.2155 50.6253 57.3955 50.8236 57.5414 51.0469H57.6234C57.6052 50.9056 57.5869 50.7119 57.5687 50.4658C57.5505 50.2197 57.5414 50.0192 57.5414 49.8643V46.8633H58.6761V57.5H57.7601L57.5892 56.4336H57.5414C57.4001 56.6569 57.2201 56.8597 57.0013 57.042C56.7871 57.2243 56.5296 57.3701 56.2289 57.4795C55.9326 57.5843 55.5817 57.6367 55.1761 57.6367ZM55.3539 56.6934C56.1559 56.6934 56.7233 56.4655 57.056 56.0098C57.3887 55.554 57.555 54.8773 57.555 53.9795V53.7744C57.555 52.8219 57.3955 52.0905 57.0765 51.5801C56.7621 51.0697 56.1878 50.8145 55.3539 50.8145C54.6566 50.8145 54.1348 51.0833 53.7884 51.6211C53.4421 52.1543 53.2689 52.8835 53.2689 53.8086C53.2689 54.7292 53.4398 55.4401 53.7816 55.9414C54.1279 56.4427 54.652 56.6934 55.3539 56.6934Z" fill="#CDCDCD"/>
</svg>
