<svg width="81" height="76" viewBox="0 0 81 76" fill="none" xmlns="http://www.w3.org/2000/svg">
<mask id="mask0_353_2195" style="mask-type:alpha" maskUnits="userSpaceOnUse" x="28" y="15" width="25" height="25">
<rect x="28.6667" y="15.5" width="24" height="24" fill="#D9D9D9"/>
</mask>
<g mask="url(#mask0_353_2195)">
<path d="M31.0078 39.5151C30.3639 39.5151 29.8127 39.2858 29.3541 38.8273C28.8956 38.3687 28.6663 37.8175 28.6663 37.1736V20.7828C28.6663 20.1389 28.8956 19.5877 29.3541 19.1291C29.8127 18.6706 30.3639 18.4413 31.0078 18.4413H41.4569L39.1154 20.7828H31.0078V37.1736H47.3986V29.0367L49.7401 26.6952V37.1736C49.7401 37.8175 49.5108 38.3687 49.0523 38.8273C48.5937 39.2858 48.0425 39.5151 47.3986 39.5151H31.0078ZM44.0912 19.1145L45.7595 20.7536L38.0324 28.4806V30.149H39.6715L47.4279 22.3926L49.0962 24.0317L41.3399 31.788C41.1252 32.0027 40.8764 32.1734 40.5935 32.3003C40.3106 32.4271 40.013 32.4905 39.7008 32.4905H36.8617C36.53 32.4905 36.2519 32.3783 36.0275 32.1539C35.8031 31.9295 35.6909 31.6515 35.6909 31.3197V28.4806C35.6909 28.1684 35.7495 27.8709 35.8665 27.5879C35.9836 27.305 36.1495 27.0562 36.3641 26.8416L44.0912 19.1145ZM49.0962 24.0317L44.0912 19.1145L47.0181 16.1876C47.4864 15.7193 48.0474 15.4851 48.7011 15.4851C49.3547 15.4851 49.906 15.7193 50.3548 16.1876L51.9938 17.8559C52.4426 18.3047 52.667 18.8511 52.667 19.495C52.667 20.1389 52.4426 20.6853 51.9938 21.1341L49.0962 24.0317Z" fill="#CDCDCD"/>
</g>
<path d="M15.3024 57.5L14.0719 54.3281H10.0661L8.84245 57.5H7.66667L11.5768 47.4648H12.6227L16.5055 57.5H15.3024ZM13.7233 53.2959L12.5544 50.1445C12.527 50.0625 12.4815 49.9281 12.4176 49.7412C12.3584 49.5544 12.2969 49.3607 12.2331 49.1602C12.1693 48.9596 12.1169 48.7979 12.0759 48.6748C12.0303 48.8617 11.9801 49.0485 11.9255 49.2354C11.8753 49.4176 11.8252 49.5885 11.7751 49.748C11.7249 49.903 11.6816 50.0352 11.6452 50.1445L10.4557 53.2959H13.7233ZM20.3884 57.6367C19.4404 57.6367 18.6885 57.3132 18.1325 56.666C17.5811 56.0189 17.3053 55.0573 17.3053 53.7812C17.3053 52.4915 17.5879 51.5186 18.153 50.8623C18.7181 50.2015 19.4701 49.8711 20.4089 49.8711C20.8053 49.8711 21.1517 49.9235 21.4479 50.0283C21.7441 50.1331 21.9994 50.2744 22.2135 50.4521C22.4277 50.6253 22.6078 50.8236 22.7536 51.0469H22.8356C22.8174 50.9056 22.7992 50.7119 22.7809 50.4658C22.7627 50.2197 22.7536 50.0192 22.7536 49.8643V46.8633H23.8884V57.5H22.9723L22.8014 56.4336H22.7536C22.6123 56.6569 22.4323 56.8597 22.2135 57.042C21.9994 57.2243 21.7419 57.3701 21.4411 57.4795C21.1449 57.5843 20.794 57.6367 20.3884 57.6367ZM20.5661 56.6934C21.3682 56.6934 21.9356 56.4655 22.2682 56.0098C22.6009 55.554 22.7673 54.8773 22.7673 53.9795V53.7744C22.7673 52.8219 22.6078 52.0905 22.2887 51.5801C21.9743 51.0697 21.4001 50.8145 20.5661 50.8145C19.8688 50.8145 19.347 51.0833 19.0007 51.6211C18.6543 52.1543 18.4811 52.8835 18.4811 53.8086C18.4811 54.7292 18.652 55.4401 18.9938 55.9414C19.3402 56.4427 19.8643 56.6934 20.5661 56.6934ZM28.9606 57.6367C28.0127 57.6367 27.2607 57.3132 26.7048 56.666C26.1533 56.0189 25.8776 55.0573 25.8776 53.7812C25.8776 52.4915 26.1602 51.5186 26.7253 50.8623C27.2904 50.2015 28.0423 49.8711 28.9811 49.8711C29.3776 49.8711 29.724 49.9235 30.0202 50.0283C30.3164 50.1331 30.5716 50.2744 30.7858 50.4521C31 50.6253 31.18 50.8236 31.3259 51.0469H31.4079C31.3897 50.9056 31.3714 50.7119 31.3532 50.4658C31.335 50.2197 31.3259 50.0192 31.3259 49.8643V46.8633H32.4606V57.5H31.5446L31.3737 56.4336H31.3259C31.1846 56.6569 31.0046 56.8597 30.7858 57.042C30.5716 57.2243 30.3141 57.3701 30.0134 57.4795C29.7171 57.5843 29.3662 57.6367 28.9606 57.6367ZM29.1384 56.6934C29.9404 56.6934 30.5078 56.4655 30.8405 56.0098C31.1732 55.554 31.3395 54.8773 31.3395 53.9795V53.7744C31.3395 52.8219 31.18 52.0905 30.861 51.5801C30.5466 51.0697 29.9723 50.8145 29.1384 50.8145C28.4411 50.8145 27.9193 51.0833 27.5729 51.6211C27.2266 52.1543 27.0534 52.8835 27.0534 53.8086C27.0534 54.7292 27.2243 55.4401 27.5661 55.9414C27.9124 56.4427 28.4365 56.6934 29.1384 56.6934ZM41.7438 57.5H40.5749V48.5312H37.4303V47.5059H44.8747V48.5312H41.7438V57.5ZM49.0173 49.8848C49.9105 49.8848 50.5736 50.0853 51.0065 50.4863C51.4395 50.8874 51.6559 51.5277 51.6559 52.4072V57.5H50.8288L50.61 56.3926H50.5553C50.3457 56.666 50.127 56.8962 49.8991 57.083C49.6712 57.2653 49.4069 57.4043 49.1061 57.5C48.8099 57.5911 48.4453 57.6367 48.0124 57.6367C47.5566 57.6367 47.151 57.557 46.7956 57.3975C46.4447 57.238 46.1667 56.9964 45.9616 56.6729C45.7611 56.3493 45.6608 55.9391 45.6608 55.4424C45.6608 54.695 45.957 54.1208 46.5495 53.7197C47.1419 53.3187 48.0443 53.0999 49.2565 53.0635L50.5485 53.0088V52.5508C50.5485 51.9036 50.4095 51.4502 50.1315 51.1904C49.8535 50.9307 49.4616 50.8008 48.9557 50.8008C48.5638 50.8008 48.1901 50.8577 47.8346 50.9717C47.4792 51.0856 47.1419 51.2201 46.8229 51.375L46.4743 50.5137C46.8115 50.3405 47.1989 50.1924 47.6364 50.0693C48.0739 49.9463 48.5342 49.8848 49.0173 49.8848ZM50.5348 53.8086L49.3932 53.8564C48.459 53.8929 47.8005 54.0456 47.4176 54.3145C47.0348 54.5833 46.8434 54.9639 46.8434 55.4561C46.8434 55.8844 46.9733 56.2012 47.2331 56.4062C47.4928 56.6113 47.8369 56.7139 48.2653 56.7139C48.9307 56.7139 49.4753 56.5293 49.8991 56.1602C50.3229 55.791 50.5348 55.2373 50.5348 54.499V53.8086ZM58.8405 55.4492C58.8405 55.9277 58.7197 56.3311 58.4782 56.6592C58.2412 56.9827 57.8994 57.2266 57.4528 57.3906C57.0107 57.5547 56.4821 57.6367 55.8669 57.6367C55.3428 57.6367 54.8893 57.5957 54.5065 57.5137C54.1237 57.4316 53.7887 57.3154 53.5016 57.165V56.1191C53.807 56.2695 54.1716 56.4062 54.5954 56.5293C55.0192 56.6523 55.4522 56.7139 55.8942 56.7139C56.5413 56.7139 57.0107 56.609 57.3024 56.3994C57.5941 56.1898 57.7399 55.9049 57.7399 55.5449C57.7399 55.3398 57.6807 55.1598 57.5622 55.0049C57.4482 54.8454 57.2546 54.6927 56.9811 54.5469C56.7077 54.3965 56.3294 54.2324 55.8464 54.0547C55.3678 53.8724 54.9531 53.6924 54.6022 53.5146C54.2559 53.3324 53.987 53.1113 53.7956 52.8516C53.6087 52.5918 53.5153 52.2546 53.5153 51.8398C53.5153 51.2064 53.7705 50.721 54.2809 50.3838C54.7959 50.042 55.4704 49.8711 56.3044 49.8711C56.7555 49.8711 57.1771 49.9167 57.569 50.0078C57.9655 50.0944 58.3346 50.2129 58.6764 50.3633L58.2936 51.2725C57.9837 51.1403 57.6533 51.0286 57.3024 50.9375C56.9515 50.8464 56.5938 50.8008 56.2292 50.8008C55.7051 50.8008 55.3018 50.8874 55.0192 51.0605C54.7412 51.2337 54.6022 51.4707 54.6022 51.7715C54.6022 52.0039 54.666 52.1953 54.7936 52.3457C54.9258 52.4961 55.1354 52.6374 55.4225 52.7695C55.7096 52.9017 56.0879 53.0566 56.5573 53.2344C57.0267 53.4076 57.4323 53.5876 57.7741 53.7744C58.1159 53.9567 58.3779 54.18 58.5602 54.4443C58.7471 54.7041 58.8405 55.0391 58.8405 55.4492ZM61.7936 46.8633V52.3867C61.7936 52.569 61.7868 52.7923 61.7731 53.0566C61.7594 53.3164 61.7481 53.5465 61.7389 53.7471H61.7868C61.8825 53.6286 62.0215 53.4531 62.2038 53.2207C62.3906 52.9883 62.5479 52.8014 62.6755 52.6602L65.1637 50.0078H66.4967L63.4821 53.207L66.7155 57.5H65.3483L62.7028 53.9521L61.7936 54.7861V57.5H60.6657V46.8633H61.7936ZM72.8678 55.4492C72.8678 55.9277 72.7471 56.3311 72.5055 56.6592C72.2686 56.9827 71.9268 57.2266 71.4801 57.3906C71.0381 57.5547 70.5094 57.6367 69.8942 57.6367C69.3701 57.6367 68.9167 57.5957 68.5339 57.5137C68.151 57.4316 67.8161 57.3154 67.529 57.165V56.1191C67.8343 56.2695 68.1989 56.4062 68.6227 56.5293C69.0466 56.6523 69.4795 56.7139 69.9216 56.7139C70.5687 56.7139 71.0381 56.609 71.3298 56.3994C71.6214 56.1898 71.7673 55.9049 71.7673 55.5449C71.7673 55.3398 71.708 55.1598 71.5895 55.0049C71.4756 54.8454 71.2819 54.6927 71.0085 54.5469C70.735 54.3965 70.3568 54.2324 69.8737 54.0547C69.3952 53.8724 68.9805 53.6924 68.6296 53.5146C68.2832 53.3324 68.0143 53.1113 67.8229 52.8516C67.6361 52.5918 67.5426 52.2546 67.5426 51.8398C67.5426 51.2064 67.7979 50.721 68.3083 50.3838C68.8232 50.042 69.4977 49.8711 70.3317 49.8711C70.7829 49.8711 71.2044 49.9167 71.5964 50.0078C71.9928 50.0944 72.362 50.2129 72.7038 50.3633L72.321 51.2725C72.0111 51.1403 71.6807 51.0286 71.3298 50.9375C70.9788 50.8464 70.6211 50.8008 70.2565 50.8008C69.7324 50.8008 69.3291 50.8874 69.0466 51.0605C68.7686 51.2337 68.6296 51.4707 68.6296 51.7715C68.6296 52.0039 68.6934 52.1953 68.821 52.3457C68.9531 52.4961 69.1628 52.6374 69.4499 52.7695C69.737 52.9017 70.1152 53.0566 70.5846 53.2344C71.054 53.4076 71.4596 53.5876 71.8014 53.7744C72.1432 53.9567 72.4053 54.18 72.5876 54.4443C72.7744 54.7041 72.8678 55.0391 72.8678 55.4492Z" fill="#CDCDCD"/>
</svg>
